<svg width="150" height="46" viewBox="0 0 150 46" fill="none" xmlns="http://www.w3.org/2000/svg">
<path d="M36.8555 0.943848H48.2657V32.2295C48.2657 34.6325 49.2462 35.8329 51.2079 35.8329C51.6885 35.8329 52.2082 35.7537 52.77 35.5936C53.3305 35.4337 53.8503 35.212 54.3315 34.9317L55.7716 43.338C54.4107 43.9824 52.8794 44.4816 51.1779 44.8406C49.4758 45.201 47.8647 45.381 46.3448 45.381C43.3012 45.381 40.9594 44.6003 39.318 43.039C37.6761 41.4769 36.8555 39.2156 36.8555 36.2526V0.943848Z" fill="white"/>
<path d="M68.557 45.381C66.9964 45.381 65.5331 45.1193 64.173 44.6003C62.8117 44.08 61.6415 43.3702 60.6605 42.4687C59.6787 41.5683 58.9085 40.4967 58.3484 39.2559C57.7871 38.015 57.5071 36.6742 57.5071 35.2314C57.5071 33.631 57.8479 32.169 58.5289 30.8477C59.2087 29.5272 60.1492 28.3874 61.3518 27.4255C62.5522 26.4644 63.983 25.7252 65.6437 25.204C67.306 24.6841 69.137 24.4229 71.139 24.4229C73.7021 24.4229 75.8243 24.8234 77.5047 25.6238V24.6626C77.5047 23.1838 77.0745 22.0821 76.2132 21.361C75.3529 20.6417 73.9616 20.2795 72.0401 20.2795C70.2383 20.2795 68.5765 20.5702 67.056 21.1503C65.5334 21.7304 63.934 22.5824 62.2521 23.7043L58.9493 16.6177C63.1119 13.9336 67.8572 12.5933 73.1816 12.5933C78.2258 12.5933 82.1086 13.7138 84.8313 15.955C87.5529 18.1989 88.9152 21.5609 88.9152 26.0439V32.1691C88.9152 33.2507 89.0744 34.0019 89.3959 34.4226C89.7151 34.8427 90.2753 35.0931 91.0764 35.1738V44.781C90.1556 44.9808 89.2839 45.1306 88.4648 45.2298C87.6433 45.3297 86.9131 45.3811 86.2724 45.3811C84.2318 45.3811 82.6789 45.0101 81.618 44.2724C80.5572 43.5301 79.8668 42.4386 79.5465 40.9971L79.3064 39.8563C77.9038 41.6582 76.2841 43.0299 74.4426 43.9703C72.6 44.9099 70.639 45.381 68.557 45.381ZM71.9805 37.2142C72.6608 37.2142 73.3607 37.1053 74.0829 36.8836C74.8025 36.6632 75.4432 36.3751 76.0036 36.014C76.4438 35.6927 76.8039 35.3421 77.0851 34.9624C77.3643 34.5813 77.5046 34.193 77.5046 33.7919V31.4491C76.8244 31.2104 76.0821 31.0088 75.2827 30.8477C74.4814 30.689 73.7614 30.609 73.122 30.609C71.7188 30.609 70.559 30.9491 69.6384 31.629C68.7174 32.311 68.2574 33.1708 68.2574 34.2107C68.2574 35.0931 68.6082 35.8131 69.3078 36.3754C70.0081 36.9343 70.8996 37.2142 71.9805 37.2142Z" fill="white"/>
<path d="M115.823 22.9211C113.621 22.9211 111.62 23.163 109.818 23.6437C108.017 24.1245 106.675 24.9252 105.795 26.0443V44.7814H94.3851V13.1937H104.834V19.1996C105.955 17.0764 107.346 15.446 109.007 14.304C110.669 13.1644 112.461 12.5938 114.382 12.5938C115.142 12.5938 115.622 12.6138 115.823 12.6542V22.9211Z" fill="white"/>
<path d="M127.48 45.3817C125.919 45.3817 124.457 45.12 123.096 44.601C121.735 44.0807 120.565 43.3709 119.585 42.4694C118.602 41.5691 117.832 40.4974 117.272 39.2566C116.711 38.0157 116.432 36.675 116.432 35.2322C116.432 33.6317 116.771 32.1697 117.451 30.8484C118.133 29.528 119.073 28.3881 120.275 27.4263C121.475 26.4651 122.906 25.726 124.568 25.2048C126.229 24.6848 128.06 24.4236 130.063 24.4236C132.624 24.4236 134.746 24.8242 136.428 25.6245V24.6633C136.428 23.1846 135.998 22.0829 135.136 21.3618C134.276 20.6424 132.885 20.2803 130.963 20.2803C129.162 20.2803 127.5 20.5709 125.98 21.151C124.457 21.7312 122.857 22.5831 121.176 23.705L117.872 16.6184C122.036 13.9344 126.78 12.594 132.105 12.594C137.149 12.594 141.032 13.7145 143.754 15.9557C146.477 18.1996 147.838 21.5617 147.838 26.0447V32.1698C147.838 33.2515 147.997 34.0026 148.319 34.4233C148.638 34.8434 149.199 35.0938 150 35.1746V44.7817C149.079 44.9815 148.208 45.1313 147.388 45.2305C146.567 45.3305 145.836 45.3818 145.195 45.3818C143.154 45.3818 141.601 45.0108 140.541 44.2731C139.481 43.5308 138.79 42.4394 138.471 40.9978L138.229 39.8571C136.828 41.6589 135.206 43.0306 133.365 43.971C131.524 44.9106 129.562 45.3817 127.48 45.3817ZM130.905 37.215C131.584 37.215 132.285 37.106 133.005 36.8843C133.725 36.6639 134.365 36.3758 134.927 36.0147C135.367 35.6934 135.728 35.3428 136.008 34.9631C136.288 34.582 136.427 34.1938 136.427 33.7926V31.4499C135.747 31.2112 135.007 31.0095 134.206 30.8484C133.404 30.6897 132.684 30.6097 132.044 30.6097C130.642 30.6097 129.481 30.9498 128.561 31.6297C127.639 32.3118 127.18 33.1716 127.18 34.2115C127.18 35.0938 127.53 35.8138 128.231 36.3761C128.931 36.9351 129.822 37.215 130.905 37.215Z" fill="white"/>
<path d="M28.4401 6.87286C28.4401 3.53085 25.73 0.820801 22.3869 0.820801C19.0429 0.820801 16.3334 3.53073 16.3334 6.87286C16.3334 10.2146 19.043 12.9242 22.3869 12.9242C25.73 12.9242 28.4401 10.2146 28.4401 6.87286Z" fill="#51FF9B"/>
<path d="M12.1067 6.87286C12.1067 3.53085 9.39654 0.820801 6.05293 0.820801C2.7114 0.820801 0 3.53085 0 6.87286C0 10.2146 2.7114 12.9242 6.05293 12.9242C9.39654 12.9242 12.1067 10.2146 12.1067 6.87286Z" fill="#51FF9B"/>
<path d="M28.4401 39.5362C28.4401 36.1928 25.73 33.4819 22.3869 33.4819C19.0429 33.4819 16.3334 36.1928 16.3334 39.5362C16.3334 42.8785 19.043 45.5899 22.3869 45.5899C25.73 45.59 28.4401 42.8785 28.4401 39.5362Z" fill="#700DFF"/>
<path d="M12.1067 39.5369C12.1067 36.1936 9.39642 33.4827 6.05293 33.4827C2.7114 33.4827 0 36.1936 0 39.5369C0 42.8792 2.7114 45.5906 6.05293 45.5906C9.39654 45.5907 12.1067 42.8792 12.1067 39.5369Z" fill="#700DFF"/>
<path d="M28.4377 23.2033C28.4377 19.8618 25.7275 17.1501 22.3848 17.1501C19.0428 17.1501 16.3311 19.8619 16.3311 23.2033C16.3311 26.5475 19.0428 29.2565 22.3848 29.2565C25.7275 29.2565 28.4377 26.5475 28.4377 23.2033Z" fill="#66BFD3"/>
<path d="M12.105 23.2033C12.105 19.8618 9.39654 17.1501 6.05194 17.1501C2.70882 17.1501 0 19.8619 0 23.2033C0 26.5475 2.70882 29.2565 6.05194 29.2565C9.39654 29.2565 12.105 26.5475 12.105 23.2033Z" fill="#66BFD3"/>
</svg>
