<svg width="150" height="45" viewBox="0 0 150 45" fill="none" xmlns="http://www.w3.org/2000/svg">
<path d="M36.8555 0.123291H48.2656V31.4446C48.2656 33.8502 49.2462 35.052 51.2078 35.052C51.6885 35.052 52.2082 34.9728 52.77 34.8125C53.3304 34.6524 53.8503 34.4304 54.3314 34.1498L55.7715 42.5656C54.4106 43.2108 52.8793 43.7106 51.1779 44.07C49.4757 44.4308 47.8647 44.611 46.3447 44.611C43.3012 44.611 40.9593 43.8294 39.318 42.2663C37.676 40.7024 36.8555 38.4386 36.8555 35.4723V0.123291Z" fill="#3D3D3E"/>
<path d="M68.557 44.6109C66.9964 44.6109 65.5332 44.3489 64.173 43.8293C62.8117 43.3084 61.6416 42.5978 60.6605 41.6953C59.6787 40.7939 58.9085 39.7211 58.3484 38.4788C57.7871 37.2365 57.5072 35.8943 57.5072 34.4498C57.5072 32.8475 57.8479 31.3839 58.529 30.0611C59.2087 28.7391 60.1493 27.598 61.3518 26.635C62.5522 25.6728 63.9831 24.9328 65.6438 24.411C67.306 23.8905 69.137 23.629 71.1391 23.629C73.7021 23.629 75.8244 24.03 77.5048 24.8312V23.8689C77.5048 22.3885 77.0746 21.2855 76.2133 20.5636C75.353 19.8435 73.9616 19.4809 72.0401 19.4809C70.2384 19.4809 68.5766 19.7719 67.056 20.3527C65.5335 20.9335 63.9341 21.7864 62.2521 22.9095L58.9494 15.8149C63.1119 13.1278 67.8572 11.7859 73.1817 11.7859C78.2259 11.7859 82.1086 12.9077 84.8314 15.1514C87.553 17.3979 88.9153 20.7638 88.9153 25.2518V31.384C88.9153 32.4669 89.0744 33.2188 89.3959 33.64C89.7151 34.0606 90.2753 34.3113 91.0764 34.3921V44.0102C90.1557 44.2102 89.2839 44.3602 88.4649 44.4595C87.6433 44.5596 86.9131 44.611 86.2724 44.611C84.2319 44.611 82.6789 44.2396 81.6181 43.501C80.5573 42.7579 79.8668 41.6652 79.5465 40.222L79.3065 39.08C77.9038 40.8839 76.2842 42.2571 74.4427 43.1986C72.6001 44.1393 70.639 44.6109 68.557 44.6109ZM71.9805 36.4349C72.6609 36.4349 73.3608 36.3258 74.083 36.1039C74.8026 35.8832 75.4433 35.5948 76.0036 35.2332C76.4438 34.9116 76.804 34.5606 77.0851 34.1804C77.3643 33.7989 77.5046 33.4102 77.5046 33.0086V30.6632C76.8244 30.4242 76.0822 30.2224 75.2828 30.0611C74.4814 29.9022 73.7615 29.8221 73.1221 29.8221C71.7188 29.8221 70.559 30.1626 69.6384 30.8432C68.7174 31.5261 68.2574 32.3869 68.2574 33.428C68.2574 34.3113 68.6082 35.0321 69.3079 35.595C70.0082 36.1546 70.8996 36.4349 71.9805 36.4349Z" fill="#3D3D3E"/>
<path d="M115.823 22.1253C113.621 22.1253 111.619 22.3674 109.818 22.8486C108.016 23.33 106.675 24.1316 105.795 25.252V44.0104H94.385V12.3868H104.834V18.3995C105.955 16.2738 107.346 14.6416 109.007 13.4984C110.669 12.3574 112.461 11.7861 114.381 11.7861C115.142 11.7861 115.622 11.8062 115.823 11.8466V22.1253Z" fill="#3D3D3E"/>
<path d="M127.48 44.6116C125.919 44.6116 124.457 44.3496 123.096 43.8301C121.735 43.3091 120.565 42.5986 119.585 41.696C118.602 40.7947 117.832 39.7218 117.272 38.4796C116.71 37.2373 116.432 35.895 116.432 34.4506C116.432 32.8483 116.771 31.3846 117.451 30.0618C118.133 28.7399 119.073 27.5987 120.275 26.6358C121.475 25.6735 122.906 24.9335 124.568 24.4117C126.229 23.8912 128.06 23.6297 130.063 23.6297C132.624 23.6297 134.746 24.0307 136.427 24.832V23.8696C136.427 22.3892 135.998 21.2863 135.136 20.5644C134.276 19.8442 132.885 19.4816 130.963 19.4816C129.162 19.4816 127.5 19.7726 125.98 20.3534C124.457 20.9342 122.857 21.7871 121.176 22.9103L117.872 15.8156C122.036 13.1285 126.78 11.7866 132.105 11.7866C137.149 11.7866 141.031 12.9084 143.754 15.1522C146.477 17.3986 147.838 20.7645 147.838 25.2526V31.3847C147.838 32.4676 147.997 33.2196 148.319 33.6408C148.638 34.0614 149.199 34.312 150 34.3929V44.011C149.079 44.211 148.207 44.361 147.388 44.4603C146.567 44.5603 145.835 44.6117 145.195 44.6117C143.154 44.6117 141.601 44.2403 140.541 43.5018C139.481 42.7587 138.79 41.6659 138.47 40.2227L138.229 39.0807C136.828 40.8846 135.206 42.2578 133.365 43.1993C131.524 44.14 129.562 44.6116 127.48 44.6116ZM130.904 36.4356C131.584 36.4356 132.284 36.3266 133.005 36.1046C133.725 35.8839 134.365 35.5955 134.927 35.234C135.367 34.9123 135.727 34.5613 136.007 34.1812C136.288 33.7996 136.427 33.4109 136.427 33.0093V30.6639C135.747 30.425 135.007 30.2231 134.206 30.0618C133.404 29.903 132.684 29.8229 132.044 29.8229C130.642 29.8229 129.481 30.1633 128.561 30.844C127.639 31.5268 127.18 32.3876 127.18 33.4287C127.18 34.312 127.53 35.0328 128.231 35.5958C128.931 36.1554 129.822 36.4356 130.904 36.4356Z" fill="#3D3D3E"/>
<path d="M28.44 6.05895C28.44 2.71313 25.7299 0 22.3868 0C19.0428 0 16.3333 2.71301 16.3333 6.05895C16.3333 9.40452 19.0429 12.1172 22.3868 12.1172C25.7299 12.1172 28.44 9.40452 28.44 6.05895Z" fill="#51FF9B"/>
<path d="M12.1067 6.05895C12.1067 2.71313 9.39654 0 6.05293 0C2.7114 0 0 2.71313 0 6.05895C0 9.40452 2.7114 12.1172 6.05293 12.1172C9.39654 12.1172 12.1067 9.40452 12.1067 6.05895Z" fill="#51FF9B"/>
<path d="M28.44 38.7597C28.44 35.4125 25.7299 32.6985 22.3868 32.6985C19.0428 32.6985 16.3333 35.4125 16.3333 38.7597C16.3333 42.1057 19.0429 44.8202 22.3868 44.8202C25.7299 44.8203 28.44 42.1057 28.44 38.7597Z" fill="#700DFF"/>
<path d="M12.1067 38.7601C12.1067 35.413 9.39642 32.699 6.05293 32.699C2.7114 32.699 0 35.413 0 38.7601C0 42.1062 2.7114 44.8207 6.05293 44.8207C9.39654 44.8208 12.1067 42.1062 12.1067 38.7601Z" fill="#700DFF"/>
<path d="M28.4376 22.408C28.4376 19.0626 25.7275 16.3479 22.3847 16.3479C19.0427 16.3479 16.3311 19.0628 16.3311 22.408C16.3311 25.756 19.0427 28.468 22.3847 28.468C25.7275 28.468 28.4376 25.756 28.4376 22.408Z" fill="#66BFD3"/>
<path d="M12.105 22.408C12.105 19.0626 9.39654 16.3479 6.05194 16.3479C2.70882 16.3479 0 19.0628 0 22.408C0 25.756 2.70882 28.468 6.05194 28.468C9.39654 28.468 12.105 25.756 12.105 22.408Z" fill="#66BFD3"/>
</svg>
